<mxfile host="Electron" agent="Mozilla/5.0 (X11; Linux x86_64) AppleWebKit/537.36 (KHTML, like Gecko) draw.io/28.0.4 Chrome/138.0.7204.97 Electron/37.2.1 Safari/537.36" version="28.0.4">
  <diagram name="Page-1" id="-2vywy1dGTamgK24qwQS">
    <mxGraphModel dx="1426" dy="802" grid="1" gridSize="10" guides="1" tooltips="1" connect="1" arrows="1" fold="1" page="1" pageScale="1" pageWidth="850" pageHeight="1100" math="0" shadow="0">
      <root>
        <mxCell id="0" />
        <mxCell id="1" parent="0" />
        <mxCell id="lCvaIcvXh69qatjNyOta-6" value="" style="edgeStyle=orthogonalEdgeStyle;rounded=0;orthogonalLoop=1;jettySize=auto;html=1;" edge="1" parent="1" source="lCvaIcvXh69qatjNyOta-1" target="lCvaIcvXh69qatjNyOta-5">
          <mxGeometry relative="1" as="geometry" />
        </mxCell>
        <mxCell id="lCvaIcvXh69qatjNyOta-24" value="T" style="edgeLabel;html=1;align=center;verticalAlign=middle;resizable=0;points=[];fontSize=17;fontStyle=1" vertex="1" connectable="0" parent="lCvaIcvXh69qatjNyOta-6">
          <mxGeometry y="3" relative="1" as="geometry">
            <mxPoint as="offset" />
          </mxGeometry>
        </mxCell>
        <mxCell id="lCvaIcvXh69qatjNyOta-1" value="emmiter" style="rounded=0;whiteSpace=wrap;html=1;fontSize=17;fontStyle=1;fillColor=#dae8fc;strokeColor=#6c8ebf;" vertex="1" parent="1">
          <mxGeometry x="150" y="160" width="120" height="40" as="geometry" />
        </mxCell>
        <mxCell id="lCvaIcvXh69qatjNyOta-4" value="" style="edgeStyle=orthogonalEdgeStyle;rounded=0;orthogonalLoop=1;jettySize=auto;html=1;" edge="1" parent="1" source="lCvaIcvXh69qatjNyOta-3" target="lCvaIcvXh69qatjNyOta-1">
          <mxGeometry relative="1" as="geometry" />
        </mxCell>
        <mxCell id="lCvaIcvXh69qatjNyOta-3" value="&lt;font style=&quot;font-size: 29px;&quot;&gt;&lt;b&gt;[]T&lt;/b&gt;&lt;/font&gt;" style="ellipse;whiteSpace=wrap;html=1;fillColor=#d5e8d4;strokeColor=#82b366;" vertex="1" parent="1">
          <mxGeometry x="10" y="145" width="70" height="70" as="geometry" />
        </mxCell>
        <mxCell id="lCvaIcvXh69qatjNyOta-9" value="" style="edgeStyle=orthogonalEdgeStyle;rounded=0;orthogonalLoop=1;jettySize=auto;html=1;fontSize=17;fontStyle=1" edge="1" parent="1" source="lCvaIcvXh69qatjNyOta-5" target="lCvaIcvXh69qatjNyOta-8">
          <mxGeometry relative="1" as="geometry">
            <Array as="points">
              <mxPoint x="390" y="220" />
              <mxPoint x="570" y="220" />
            </Array>
          </mxGeometry>
        </mxCell>
        <mxCell id="lCvaIcvXh69qatjNyOta-26" value="A" style="edgeLabel;html=1;align=center;verticalAlign=middle;resizable=0;points=[];fontSize=17;fontStyle=1" vertex="1" connectable="0" parent="lCvaIcvXh69qatjNyOta-9">
          <mxGeometry x="0.12" y="4" relative="1" as="geometry">
            <mxPoint as="offset" />
          </mxGeometry>
        </mxCell>
        <mxCell id="lCvaIcvXh69qatjNyOta-10" value="" style="edgeStyle=orthogonalEdgeStyle;rounded=0;orthogonalLoop=1;jettySize=auto;html=1;fontSize=17;fontStyle=1" edge="1" parent="1" source="lCvaIcvXh69qatjNyOta-5" target="lCvaIcvXh69qatjNyOta-7">
          <mxGeometry relative="1" as="geometry">
            <Array as="points">
              <mxPoint x="390" y="140" />
            </Array>
          </mxGeometry>
        </mxCell>
        <mxCell id="lCvaIcvXh69qatjNyOta-25" value="A" style="edgeLabel;html=1;align=center;verticalAlign=middle;resizable=0;points=[];fontSize=17;fontStyle=1" vertex="1" connectable="0" parent="lCvaIcvXh69qatjNyOta-10">
          <mxGeometry x="0.2" y="2" relative="1" as="geometry">
            <mxPoint as="offset" />
          </mxGeometry>
        </mxCell>
        <mxCell id="lCvaIcvXh69qatjNyOta-5" value="&quot;transformer&quot;" style="rounded=0;whiteSpace=wrap;html=1;fontSize=17;fontStyle=1;fillColor=#fff2cc;strokeColor=#d6b656;" vertex="1" parent="1">
          <mxGeometry x="330" y="160" width="120" height="40" as="geometry" />
        </mxCell>
        <mxCell id="lCvaIcvXh69qatjNyOta-12" value="" style="edgeStyle=orthogonalEdgeStyle;rounded=0;orthogonalLoop=1;jettySize=auto;html=1;" edge="1" parent="1" source="lCvaIcvXh69qatjNyOta-7" target="lCvaIcvXh69qatjNyOta-11">
          <mxGeometry relative="1" as="geometry" />
        </mxCell>
        <mxCell id="lCvaIcvXh69qatjNyOta-27" value="B" style="edgeLabel;html=1;align=center;verticalAlign=middle;resizable=0;points=[];fontSize=17;fontStyle=1" vertex="1" connectable="0" parent="lCvaIcvXh69qatjNyOta-12">
          <mxGeometry x="0.04" y="-1" relative="1" as="geometry">
            <mxPoint x="-6" y="-1" as="offset" />
          </mxGeometry>
        </mxCell>
        <mxCell id="lCvaIcvXh69qatjNyOta-7" value="&quot;transformer&quot;" style="rounded=0;whiteSpace=wrap;html=1;fontSize=17;fontStyle=1;fillColor=#fff2cc;strokeColor=#d6b656;" vertex="1" parent="1">
          <mxGeometry x="520" y="120" width="120" height="40" as="geometry" />
        </mxCell>
        <mxCell id="lCvaIcvXh69qatjNyOta-14" value="" style="edgeStyle=orthogonalEdgeStyle;rounded=0;orthogonalLoop=1;jettySize=auto;html=1;" edge="1" parent="1" source="lCvaIcvXh69qatjNyOta-8" target="lCvaIcvXh69qatjNyOta-13">
          <mxGeometry relative="1" as="geometry" />
        </mxCell>
        <mxCell id="lCvaIcvXh69qatjNyOta-28" value="C" style="edgeLabel;html=1;align=center;verticalAlign=middle;resizable=0;points=[];fontSize=17;fontStyle=1" vertex="1" connectable="0" parent="lCvaIcvXh69qatjNyOta-14">
          <mxGeometry x="-0.24" y="3" relative="1" as="geometry">
            <mxPoint as="offset" />
          </mxGeometry>
        </mxCell>
        <mxCell id="lCvaIcvXh69qatjNyOta-8" value="&quot;transformer&quot;" style="rounded=0;whiteSpace=wrap;html=1;fontSize=17;fontStyle=1;fillColor=#fff2cc;strokeColor=#d6b656;" vertex="1" parent="1">
          <mxGeometry x="520" y="200" width="120" height="40" as="geometry" />
        </mxCell>
        <mxCell id="lCvaIcvXh69qatjNyOta-16" value="" style="edgeStyle=orthogonalEdgeStyle;rounded=0;orthogonalLoop=1;jettySize=auto;html=1;" edge="1" parent="1" source="lCvaIcvXh69qatjNyOta-11" target="lCvaIcvXh69qatjNyOta-15">
          <mxGeometry relative="1" as="geometry">
            <Array as="points">
              <mxPoint x="950" y="140" />
            </Array>
          </mxGeometry>
        </mxCell>
        <mxCell id="lCvaIcvXh69qatjNyOta-29" value="&lt;font style=&quot;font-size: 17px;&quot;&gt;&lt;b&gt;D&lt;/b&gt;&lt;/font&gt;" style="edgeLabel;html=1;align=center;verticalAlign=middle;resizable=0;points=[];" vertex="1" connectable="0" parent="lCvaIcvXh69qatjNyOta-16">
          <mxGeometry x="-0.3875" y="2" relative="1" as="geometry">
            <mxPoint as="offset" />
          </mxGeometry>
        </mxCell>
        <mxCell id="lCvaIcvXh69qatjNyOta-11" value="&quot;transformer&quot;" style="rounded=0;whiteSpace=wrap;html=1;fontSize=17;fontStyle=1;fillColor=#fff2cc;strokeColor=#d6b656;" vertex="1" parent="1">
          <mxGeometry x="690" y="120" width="120" height="40" as="geometry" />
        </mxCell>
        <mxCell id="lCvaIcvXh69qatjNyOta-17" value="" style="edgeStyle=orthogonalEdgeStyle;rounded=0;orthogonalLoop=1;jettySize=auto;html=1;" edge="1" parent="1" source="lCvaIcvXh69qatjNyOta-13" target="lCvaIcvXh69qatjNyOta-15">
          <mxGeometry relative="1" as="geometry">
            <Array as="points">
              <mxPoint x="950" y="220" />
            </Array>
          </mxGeometry>
        </mxCell>
        <mxCell id="lCvaIcvXh69qatjNyOta-30" value="&lt;font style=&quot;font-size: 17px;&quot;&gt;&lt;b&gt;D&lt;/b&gt;&lt;/font&gt;" style="edgeLabel;html=1;align=center;verticalAlign=middle;resizable=0;points=[];" vertex="1" connectable="0" parent="lCvaIcvXh69qatjNyOta-17">
          <mxGeometry x="-0.3375" y="1" relative="1" as="geometry">
            <mxPoint as="offset" />
          </mxGeometry>
        </mxCell>
        <mxCell id="lCvaIcvXh69qatjNyOta-13" value="&quot;transformer&quot;" style="rounded=0;whiteSpace=wrap;html=1;fontSize=17;fontStyle=1;fillColor=#fff2cc;strokeColor=#d6b656;" vertex="1" parent="1">
          <mxGeometry x="690" y="200" width="120" height="40" as="geometry" />
        </mxCell>
        <mxCell id="lCvaIcvXh69qatjNyOta-19" value="" style="edgeStyle=orthogonalEdgeStyle;rounded=0;orthogonalLoop=1;jettySize=auto;html=1;" edge="1" parent="1" source="lCvaIcvXh69qatjNyOta-15" target="lCvaIcvXh69qatjNyOta-18">
          <mxGeometry relative="1" as="geometry" />
        </mxCell>
        <mxCell id="lCvaIcvXh69qatjNyOta-31" value="&lt;font style=&quot;font-size: 17px;&quot;&gt;&lt;b&gt;E&lt;/b&gt;&lt;/font&gt;" style="edgeLabel;html=1;align=center;verticalAlign=middle;resizable=0;points=[];" vertex="1" connectable="0" parent="lCvaIcvXh69qatjNyOta-19">
          <mxGeometry x="-0.1" relative="1" as="geometry">
            <mxPoint as="offset" />
          </mxGeometry>
        </mxCell>
        <mxCell id="lCvaIcvXh69qatjNyOta-15" value="&quot;transformer&quot;" style="rounded=0;whiteSpace=wrap;html=1;fontSize=17;fontStyle=1;fillColor=#fff2cc;strokeColor=#d6b656;" vertex="1" parent="1">
          <mxGeometry x="890" y="160" width="120" height="40" as="geometry" />
        </mxCell>
        <mxCell id="lCvaIcvXh69qatjNyOta-21" value="" style="edgeStyle=orthogonalEdgeStyle;rounded=0;orthogonalLoop=1;jettySize=auto;html=1;" edge="1" parent="1" source="lCvaIcvXh69qatjNyOta-18" target="lCvaIcvXh69qatjNyOta-20">
          <mxGeometry relative="1" as="geometry" />
        </mxCell>
        <mxCell id="lCvaIcvXh69qatjNyOta-32" value="&lt;font style=&quot;font-size: 17px;&quot;&gt;&lt;b&gt;V&lt;/b&gt;&lt;/font&gt;" style="edgeLabel;html=1;align=center;verticalAlign=middle;resizable=0;points=[];" vertex="1" connectable="0" parent="lCvaIcvXh69qatjNyOta-21">
          <mxGeometry y="2" relative="1" as="geometry">
            <mxPoint as="offset" />
          </mxGeometry>
        </mxCell>
        <mxCell id="lCvaIcvXh69qatjNyOta-18" value="&quot;transformer&quot;" style="rounded=0;whiteSpace=wrap;html=1;fontSize=17;fontStyle=1;fillColor=#fff2cc;strokeColor=#d6b656;" vertex="1" parent="1">
          <mxGeometry x="1050" y="160" width="120" height="40" as="geometry" />
        </mxCell>
        <mxCell id="lCvaIcvXh69qatjNyOta-23" value="" style="edgeStyle=orthogonalEdgeStyle;rounded=0;orthogonalLoop=1;jettySize=auto;html=1;" edge="1" parent="1" source="lCvaIcvXh69qatjNyOta-20" target="lCvaIcvXh69qatjNyOta-22">
          <mxGeometry relative="1" as="geometry" />
        </mxCell>
        <mxCell id="lCvaIcvXh69qatjNyOta-20" value="collector" style="rounded=0;whiteSpace=wrap;html=1;fontSize=17;fontStyle=1;fillColor=#dae8fc;strokeColor=#6c8ebf;" vertex="1" parent="1">
          <mxGeometry x="1210" y="160" width="120" height="40" as="geometry" />
        </mxCell>
        <mxCell id="lCvaIcvXh69qatjNyOta-22" value="&lt;font style=&quot;font-size: 29px;&quot;&gt;&lt;b&gt;[]V&lt;/b&gt;&lt;/font&gt;" style="ellipse;whiteSpace=wrap;html=1;fillColor=#d5e8d4;strokeColor=#82b366;" vertex="1" parent="1">
          <mxGeometry x="1380" y="145" width="70" height="70" as="geometry" />
        </mxCell>
      </root>
    </mxGraphModel>
  </diagram>
</mxfile>
